<?xml version="1.0" encoding="UTF-8"?>
<svg xmlns="http://www.w3.org/2000/svg" xmlns:xlink="http://www.w3.org/1999/xlink" width="500px" height="500px" viewBox="0 0 500 500" version="1.1">
  <title>deployment-hero-c-480x480</title>
  <defs>
    <linearGradient x1="50%" y1="100%" x2="50%" y2="0%" id="linearGradient-1">
      <stop stop-color="#00ABE6" offset="11%"></stop>
      <stop stop-color="#0468C1" offset="57%"></stop>
      <stop stop-color="#003399" offset="95%"></stop>
    </linearGradient>
    <linearGradient x1="50.0057571%" y1="68.1075382%" x2="50.0057571%" y2="7.03083817%" id="linearGradient-2">
      <stop stop-color="#FFFFFF" stop-opacity="0" offset="22%"></stop>
      <stop stop-color="#00ABE6" stop-opacity="0.4" offset="100%"></stop>
    </linearGradient>
    <linearGradient x1="50%" y1="-186.236016%" x2="50%" y2="-186.236016%" id="linearGradient-3">
      <stop stop-color="#00ABE6" offset="11%"></stop>
      <stop stop-color="#0468C1" offset="57%"></stop>
      <stop stop-color="#003399" offset="95%"></stop>
    </linearGradient>
    <linearGradient x1="61.1244231%" y1="69.0458568%" x2="39.4391196%" y2="37.3350806%" id="linearGradient-4">
      <stop stop-color="#FFFFFF" stop-opacity="0.4" offset="0%"></stop>
      <stop stop-color="#FFFFFF" offset="100%"></stop>
    </linearGradient>
    <linearGradient x1="50.0028126%" y1="-240.664586%" x2="50.0028126%" y2="-240.664586%" id="linearGradient-5">
      <stop stop-color="#00ABE6" offset="11%"></stop>
      <stop stop-color="#0468C1" offset="57%"></stop>
      <stop stop-color="#003399" offset="95%"></stop>
    </linearGradient>
    <linearGradient x1="36.1534567%" y1="42.5440723%" x2="73.1732013%" y2="80.4835783%" id="linearGradient-6">
      <stop stop-color="#FFFFFF" stop-opacity="0.2" offset="0%"></stop>
      <stop stop-color="#FFFFFF" stop-opacity="0.4" offset="100%"></stop>
    </linearGradient>
    <linearGradient x1="50.0714286%" y1="-806.661332%" x2="50.0714286%" y2="-806.661332%" id="linearGradient-7">
      <stop stop-color="#00ABE6" offset="11%"></stop>
      <stop stop-color="#0468C1" offset="57%"></stop>
      <stop stop-color="#003399" offset="95%"></stop>
    </linearGradient>
    <linearGradient x1="39.1092441%" y1="10.6421284%" x2="-15.6470562%" y2="-187.197439%" id="linearGradient-8">
      <stop stop-color="#FFFFFF" stop-opacity="0.4" offset="0%"></stop>
      <stop stop-color="#FFFFFF" offset="100%"></stop>
    </linearGradient>
    <linearGradient x1="43.8823532%" y1="34.5469094%" x2="117.60784%" y2="214.182837%" id="linearGradient-9">
      <stop stop-color="#FFFFFF" stop-opacity="0.2" offset="0%"></stop>
      <stop stop-color="#FFFFFF" stop-opacity="0.4" offset="100%"></stop>
    </linearGradient>
  </defs>
  <g id="Page-1" stroke="none" stroke-width="1" fill="none" fill-rule="evenodd">
    <g id="deployment-hero-c-480x480" fill-rule="nonzero">
      <circle id="Oval" fill="url(#linearGradient-1)" cx="250" cy="250" r="250"></circle>
      <path d="M273.385417,326.59375 C273.041667,326.979167 225.625,326.979167 225.270833,326.59375 L204.09375,484.677083 L294.5625,484.677083 L273.385417,326.59375 Z" id="Path" fill="url(#linearGradient-2)"></path>
      <path d="M268.9375,298.010417 L273.708333,328.375 C273.955292,329.917854 273.37654,331.477397 272.182865,332.485627 C270.98919,333.493856 269.354815,333.803614 267.875,333.302083 L261.895833,331.25 L253.28125,354.572917 C252.633615,356.328987 250.960229,357.495406 249.088542,357.495406 C247.216854,357.495406 245.543468,356.328987 244.895833,354.572917 L236.291667,331.25 L230.3125,333.333333 C228.832253,333.826636 227.201967,333.514101 226.009097,332.508348 C224.816227,331.502595 224.232687,329.94857 224.46875,328.40625 L229.239583,298.041667 C229.421644,296.87016 230.061771,295.819014 231.019061,295.119606 C231.97635,294.420199 233.172333,294.12986 234.34375,294.3125 L263.833333,294.3125 C265.00475,294.12986 266.200733,294.420199 267.158022,295.119606 C268.115312,295.819014 268.755439,296.87016 268.9375,298.041667 L268.9375,298.010417 Z" id="Path" fill="#FFDC6D"></path>
      <path d="M268.9375,298.010417 L273.708333,328.375 C273.955292,329.917854 273.37654,331.477397 272.182865,332.485627 C270.98919,333.493856 269.354815,333.803614 267.875,333.302083 L261.895833,331.25 L253.28125,354.572917 C252.637522,356.319707 250.976199,357.482633 249.114583,357.489583 L249.114583,294.28125 L263.854167,294.28125 C265.025583,294.09861 266.221566,294.388949 267.178856,295.088356 C268.136145,295.787764 268.776273,296.83891 268.958333,298.010417 L268.9375,298.010417 Z" id="Path" fill="#FFC40C"></path>
      <path d="M289.635417,258.666667 L286.458333,291.3125 C286.153388,294.357425 283.591407,296.676265 280.53125,296.677083 L217.708333,296.677083 C214.650296,296.675759 212.091579,294.355795 211.791667,291.3125 L208.572917,258.666667 C208.408298,256.996237 208.957144,255.334014 210.084066,254.090036 C211.210987,252.846057 212.811062,252.136144 214.489583,252.135417 L283.729167,252.135417 C285.405873,252.139079 287.003153,252.850265 288.127768,254.093888 C289.252384,255.337511 289.799862,256.99804 289.635417,258.666667 L289.635417,258.666667 Z" id="Path" fill="#B1B1B3"></path>
      <path d="M289.635417,258.666667 L286.458333,291.3125 C286.153388,294.357425 283.591407,296.676265 280.53125,296.677083 L249.09375,296.677083 L249.09375,252.135411 L283.708333,252.135411 C285.388668,252.133201 286.991541,252.841838 288.120771,254.086174 C289.250001,255.33051 289.800215,256.994431 289.635417,258.666667 L289.635417,258.666667 Z" id="Path" fill="#999998"></path>
      <path d="M210.260417,167.572917 L179.583333,198.270833 C178.578409,199.279006 177.965395,200.612126 177.854167,202.03125 L173.0625,265.145833 C172.872461,267.672433 174.303883,270.042059 176.628727,271.049492 C178.953571,272.056924 181.661409,271.480977 183.375,269.614583 L218.854167,230.895833 C219.86244,229.799945 220.420391,228.364152 220.416685,226.875 L220.416685,171.78125 C220.408596,169.378896 218.958589,167.21639 216.739206,166.296768 C214.519822,165.377147 211.965264,165.880326 210.260417,167.572917 Z" id="Path" fill="#B1B1B3"></path>
      <path d="M277.760417,171.78125 L277.760417,226.875 C277.761776,228.363201 278.319035,229.797214 279.322917,230.895833 L314.802083,269.614583 C316.514014,271.489789 319.227559,272.071487 321.55771,271.062774 C323.88786,270.054061 325.320741,267.677392 325.125,265.145833 L320.322917,202.083333 C320.215406,200.665355 319.606031,199.332118 318.604167,198.322917 L287.916667,167.572917 C286.217222,165.885464 283.672609,165.379519 281.45691,166.288524 C279.241212,167.197528 277.785097,169.344797 277.760417,171.739583 L277.760417,171.78125 Z" id="Path" fill="#999998"></path>
      <path d="M253.302083,67.3541667 C267.716694,81.7717388 278.477325,99.4251738 284.6875,118.84375 C289.34375,133.510417 289.645833,143.916667 289.65625,144.354167 C289.666667,144.791667 289.65625,159.375 289.65625,258.083333 L208.520833,258.083333 L208.520833,144.541667 C209.9375,119.958333 222.239583,90.0416667 244.885417,67.3958333 C247.211178,65.0754114 250.976322,65.0754114 253.302083,67.3958333 L253.302083,67.3541667 Z" id="Path" fill="#F7F7F4"></path>
      <path d="M253.302083,67.3541667 C267.716694,81.7717388 278.477325,99.4251738 284.6875,118.84375 C289.34375,133.510417 289.645833,143.916667 289.65625,144.354167 C289.666667,144.791667 289.65625,159.375 289.65625,258.083333 L249.09375,258.083333 L249.09375,65.625 C250.657988,65.6312703 252.156091,66.2567283 253.260417,67.3645833 L253.302083,67.3541667 Z" id="Path" fill="#E9E9E2"></path>
      <polygon id="Path" fill="#006CB7" points="248.510417 133.052083 248.510417 133.0625 248.510417 133.052083 222.895833 162.635417 248.510417 177.427083 248.510417 177.416667 248.510417 177.427083 274.125 162.635417"></polygon>
      <polygon id="Path" fill="#FFFFFF" opacity="0.5" points="222.895833 162.635417 248.510417 133.052083 248.510417 177.427083 248.510417 177.416667 248.510417 177.427083"></polygon>
      <path d="M273.677083,472.125 C261.59375,468.145833 252.84375,457.114583 252.84375,444.197917 C252.933554,434.447434 257.88993,425.386803 266.052083,420.052083 C259.714116,415.787165 252.243464,413.519483 244.604167,413.541667 L231.760417,413.541667 C229.675202,398.976765 221.504274,385.982037 209.28125,377.791667 C209.906817,374.624736 210.227726,371.405185 210.239583,368.177083 C210.239583,339.302083 185.885417,315.905137 155.864583,315.905137 C137.240828,315.787745 119.832078,325.137543 109.645833,340.729167 C108.479167,340.635417 107.302083,340.5625 106.104167,340.5625 C84.2916667,340.5625 66.6041667,357.5625 66.6041667,378.53125 C66.6033978,381.154753 66.8862918,383.77065 67.4479167,386.333333 C58.528714,382.152487 48.3974489,381.342134 38.9270833,384.052083 C68.823638,431.045221 113.513441,466.748686 165.947917,485.531369 L244.604167,485.531369 C255.795938,485.559253 266.431574,480.654896 273.677083,472.125 L273.677083,472.125 Z" id="Path" fill="url(#linearGradient-3)"></path>
      <path d="M273.677083,472.125 C261.59375,468.145833 252.84375,457.114583 252.84375,444.197917 C252.933554,434.447434 257.88993,425.386803 266.052083,420.052083 C259.714116,415.787165 252.243464,413.519483 244.604167,413.541667 L231.760417,413.541667 C229.675202,398.976765 221.504274,385.982037 209.28125,377.791667 C209.906817,374.624736 210.227726,371.405185 210.239583,368.177083 C210.239583,339.302083 185.885417,315.905137 155.864583,315.905137 C137.240828,315.787745 119.832078,325.137543 109.645833,340.729167 C108.479167,340.635417 107.302083,340.5625 106.104167,340.5625 C84.2916667,340.5625 66.6041667,357.5625 66.6041667,378.53125 C66.6033978,381.154753 66.8862918,383.77065 67.4479167,386.333333 C58.528714,382.152487 48.3974489,381.342134 38.9270833,384.052083 C68.823638,431.045221 113.513441,466.748686 165.947917,485.531369 L244.604167,485.531369 C255.795938,485.559253 266.431574,480.654896 273.677083,472.125 L273.677083,472.125 Z" id="Path" fill="url(#linearGradient-4)"></path>
      <path d="M451.21875,398.364583 C448.000574,393.218431 443.742997,388.801195 438.71875,385.395833 C439.236304,382.802554 439.501431,380.165238 439.510417,377.520833 C439.510417,353.854167 419.552083,334.676235 394.9375,334.676235 C379.676203,334.583465 365.411489,342.245453 357.0625,355.020833 C356.104167,354.947917 355.135417,354.885417 354.15625,354.885417 C336.28125,354.885417 321.78125,368.8125 321.78125,386 C321.784589,388.150763 322.018566,390.294967 322.479167,392.395833 C318.050003,390.329726 313.220687,389.262867 308.333333,389.270833 C292.15625,389.270833 278.802083,400.677083 276.385417,415.572917 C272.692366,416.436254 269.187316,417.964639 266.041667,420.083333 C275.947664,426.625814 281.946494,437.670535 282.041667,449.541667 C282.031458,457.829187 279.078155,465.843713 273.708333,472.15625 C276.89119,473.20614 280.221373,473.739585 283.572917,473.739585 L361.697917,473.739585 C397.061025,456.020135 427.735175,430.193029 451.21875,398.364583 L451.21875,398.364583 Z" id="Path" fill="url(#linearGradient-5)"></path>
      <path d="M451.21875,398.364583 C448.000574,393.218431 443.742997,388.801195 438.71875,385.395833 C439.236304,382.802554 439.501431,380.165238 439.510417,377.520833 C439.510417,353.854167 419.552083,334.676235 394.9375,334.676235 C379.676203,334.583465 365.411489,342.245453 357.0625,355.020833 C356.104167,354.947917 355.135417,354.885417 354.15625,354.885417 C336.28125,354.885417 321.78125,368.8125 321.78125,386 C321.784589,388.150763 322.018566,390.294967 322.479167,392.395833 C318.050003,390.329726 313.220687,389.262867 308.333333,389.270833 C292.15625,389.270833 278.802083,400.677083 276.385417,415.572917 C272.692366,416.436254 269.187316,417.964639 266.041667,420.083333 C275.947664,426.625814 281.946494,437.670535 282.041667,449.541667 C282.031458,457.829187 279.078155,465.843713 273.708333,472.15625 C276.89119,473.20614 280.221373,473.739585 283.572917,473.739585 L361.697917,473.739585 C397.061025,456.020135 427.735175,430.193029 451.21875,398.364583 L451.21875,398.364583 Z" id="Path" fill="url(#linearGradient-6)"></path>
      <path d="M252.84375,444.197917 C252.84375,457.114583 261.59375,468.15625 273.677083,472.125 C279.046905,465.812463 282.000208,457.797937 282.010417,449.510417 C281.915244,437.639285 275.916414,426.594564 266.010417,420.052083 C257.864147,425.396412 252.924314,434.455377 252.84375,444.197917 L252.84375,444.197917 Z" id="Path" fill="url(#linearGradient-7)"></path>
      <path d="M252.84375,444.197917 C252.84375,457.114583 261.59375,468.15625 273.677083,472.125 C279.046905,465.812463 282.000208,457.797937 282.010417,449.510417 C281.915244,437.639285 275.916414,426.594564 266.010417,420.052083 C257.864147,425.396412 252.924314,434.455377 252.84375,444.197917 L252.84375,444.197917 Z" id="Path" fill="url(#linearGradient-8)"></path>
      <path d="M252.84375,444.197917 C252.84375,457.114583 261.59375,468.15625 273.677083,472.125 C279.046905,465.812463 282.000208,457.797937 282.010417,449.510417 C281.915244,437.639285 275.916414,426.594564 266.010417,420.052083 C257.864147,425.396412 252.924314,434.455377 252.84375,444.197917 L252.84375,444.197917 Z" id="Path" fill="url(#linearGradient-9)"></path>
    </g>
  </g>
</svg>
